<?xml version="1.0" standalone="no"?>
<!DOCTYPE svg PUBLIC "-//W3C//DTD SVG 20010904//EN"
 "http://www.w3.org/TR/2001/REC-SVG-20010904/DTD/svg10.dtd">
<svg version="1.0" xmlns="http://www.w3.org/2000/svg"
 width="828.000000pt" height="828.000000pt" viewBox="0 0 828.000000 828.000000"
 preserveAspectRatio="xMidYMid meet">

<g transform="translate(0.000000,828.000000) scale(0.100000,-0.100000)"
fill="#000000" stroke="none">
<path d="M4096 6588 c-67 -102 -80 -214 -46 -383 12 -60 28 -130 35 -155 8
-25 41 -133 74 -240 110 -363 139 -479 148 -601 4 -65 2 -93 -11 -123 -9 -21
-16 -41 -16 -43 0 -11 52 9 97 37 70 43 223 121 335 169 115 51 183 107 176
146 -6 30 3 32 25 7 42 -46 5 -107 -93 -157 -80 -41 -340 -154 -459 -201 -63
-25 -126 -53 -140 -63 -27 -18 -141 -79 -416 -221 -316 -163 -371 -193 -442
-241 -78 -53 -94 -57 -113 -34 -19 23 -6 42 62 86 58 38 458 239 538 270 131
51 256 169 178 169 -91 -1 -280 -53 -423 -115 -16 -8 -64 -28 -105 -46 -100
-42 -471 -225 -590 -290 -52 -28 -149 -87 -214 -130 -66 -44 -125 -79 -131
-79 -21 0 -38 28 -31 52 10 39 62 70 451 268 405 205 666 315 798 334 26 4 47
11 47 15 0 5 -21 14 -47 21 -27 8 -90 31 -140 52 -107 44 -73 50 -324 -54
-229 -96 -305 -131 -504 -233 -269 -138 -445 -243 -524 -310 -53 -45 -87 -55
-109 -33 -51 51 49 119 518 354 214 107 267 132 440 209 142 63 264 110 328
126 l52 13 -60 38 c-110 70 -136 68 -370 -30 -250 -104 -416 -182 -573 -269
-252 -140 -349 -208 -510 -360 -48 -46 -92 -83 -98 -83 -18 0 -9 56 16 92 115
169 758 534 1233 698 123 43 148 63 96 76 -73 18 -202 -26 -489 -167 -345
-170 -857 -473 -942 -558 -63 -64 -117 -249 -149 -511 -44 -359 -3 -1454 57
-1526 7 -9 16 -11 21 -6 13 13 25 353 33 877 9 584 17 667 60 624 28 -27 35
-180 43 -875 6 -550 10 -685 21 -698 38 -45 39 -25 45 827 3 452 8 841 12 865
7 50 29 56 38 10 12 -71 36 -301 46 -453 27 -425 91 -1127 116 -1282 17 -108
19 -113 41 -113 12 0 14 7 9 38 -4 20 -10 233 -13 473 -5 457 4 701 32 812 39
153 155 318 284 406 233 158 504 203 888 145 l121 -18 44 29 c23 15 79 58 123
94 143 119 218 167 325 209 54 21 81 25 160 25 96 -1 139 -11 267 -62 167 -66
269 -42 483 113 193 140 304 205 427 247 130 45 198 36 260 -34 33 -38 39 -52
74 -191 39 -152 107 -224 168 -179 54 41 88 128 117 303 20 122 54 242 68 237
8 -3 11 -249 11 -848 0 -464 4 -852 9 -861 4 -10 12 -18 17 -18 29 0 32 70 40
820 8 898 12 955 62 948 31 -4 47 -46 58 -151 6 -51 14 -582 18 -1182 5 -620
13 -1103 18 -1120 5 -16 17 -31 25 -33 24 -5 27 109 31 1173 3 712 7 956 16
973 8 15 21 22 40 22 16 0 34 6 40 13 23 29 42 105 51 216 12 134 27 221 40
221 37 0 51 -140 56 -560 3 -201 7 -380 10 -397 6 -40 30 -44 44 -7 42 109 33
1125 -11 1316 -25 108 -197 208 -474 277 -252 63 -684 100 -1155 101 -140 1
-274 5 -297 9 l-43 8 0 -43 c0 -74 3 -75 363 -90 437 -19 632 -45 797 -105
117 -43 179 -111 158 -172 -39 -110 -264 -219 -693 -337 -82 -23 -179 -51
-215 -62 -176 -55 -230 -73 -420 -137 -479 -161 -543 -186 -601 -235 -42 -35
-68 -41 -84 -20 -7 10 -11 24 -8 30 16 43 457 214 1157 451 340 115 386 132
419 161 23 20 22 73 -3 104 -21 28 -96 67 -175 92 -196 62 -539 60 -664 -3
-45 -24 -54 -37 -83 -124 -37 -113 -116 -253 -133 -235 -4 4 3 19 47 98 70
124 115 359 104 538 -10 160 -68 419 -97 437 -5 4 -23 -24 -40 -62 -52 -114
-67 -122 -140 -74 -75 51 -138 122 -177 200 -36 72 -37 79 -37 183 0 59 -3
108 -7 108 -4 0 -14 -10 -22 -22z"/>
<path d="M3905 6296 c-87 -189 -122 -341 -111 -495 5 -77 4 -93 -6 -83 -21 21
-24 255 -4 332 17 64 16 87 -2 53 -15 -29 -34 -118 -41 -196 -6 -69 -7 -72
-33 -75 -35 -4 -91 45 -130 115 -17 30 -35 52 -42 50 -21 -7 -10 -131 19 -219
38 -114 55 -134 144 -176 67 -31 256 -140 285 -163 6 -5 38 -30 71 -56 84 -65
124 -103 146 -138 l19 -30 1 25 c0 14 2 34 5 45 10 48 -23 181 -107 431 -102
305 -139 444 -139 525 0 76 -11 149 -22 149 -5 0 -29 -42 -53 -94z"/>
<path d="M3826 6201 c-4 -7 -5 -15 -2 -18 9 -9 19 4 14 18 -4 11 -6 11 -12 0z"/>
<path d="M4685 5743 c-36 -10 -47 -53 -22 -86 11 -15 38 -18 212 -23 254 -6
386 -19 502 -49 163 -43 222 -88 231 -176 5 -51 5 -51 35 -45 45 9 154 67 188
100 147 144 -246 262 -931 280 -107 3 -204 2 -215 -1z"/>
<path d="M3521 5718 c-1 -22 20 -68 31 -68 13 0 9 38 -6 47 -7 4 -16 15 -19
23 -4 12 -6 12 -6 -2z"/>
<path d="M3390 5575 c-89 -17 -209 -63 -224 -87 -15 -24 -1 -35 70 -54 75 -19
122 -47 207 -123 47 -42 76 -61 95 -61 21 0 31 -8 42 -33 12 -25 28 -37 80
-58 127 -50 198 -64 320 -64 107 0 118 2 156 26 35 23 74 67 74 84 0 3 -9 5
-19 5 -11 0 -23 5 -27 11 -4 6 -58 35 -120 65 -63 29 -114 58 -114 64 0 14 -5
15 100 -30 51 -23 98 -39 104 -37 12 4 -52 47 -71 47 -7 0 -15 11 -19 25 -9
35 -67 78 -191 141 -186 95 -283 111 -463 79z"/>
<path d="M5316 4519 c-46 -36 -23 -99 37 -99 27 0 57 32 57 61 0 16 -44 59
-60 59 -4 0 -19 -9 -34 -21z"/>
<path d="M6443 4423 c-4 -27 -8 -386 -8 -799 0 -622 2 -754 14 -767 22 -27 29
-20 42 41 10 45 10 182 0 647 -9 434 -9 631 -1 743 9 117 8 157 -1 168 -22 26
-38 15 -46 -33z"/>
<path d="M4170 4248 c-11 -12 -20 -30 -20 -40 0 -24 35 -58 60 -58 11 0 29 9
40 20 11 11 20 29 20 40 0 26 -34 60 -60 60 -10 0 -28 -10 -40 -22z"/>
<path d="M6616 3437 c-39 -28 -10 -107 39 -107 49 0 72 63 35 100 -23 23 -49
26 -74 7z"/>
<path d="M2925 3334 c-10 -10 -22 -30 -27 -46 -12 -35 -40 -43 -208 -58 -203
-18 -287 -43 -329 -96 -26 -33 -27 -70 -1 -111 22 -37 60 -44 94 -18 17 13 18
18 8 40 -30 65 1 107 91 124 93 17 147 22 147 13 0 -5 -7 -31 -15 -57 -22 -75
-78 -147 -171 -220 -106 -84 -134 -118 -134 -158 0 -34 24 -78 56 -102 32 -24
86 -18 130 14 115 82 161 197 179 444 6 79 9 87 28 91 12 2 53 9 92 16 111 18
149 52 122 109 -15 32 -39 37 -62 15z"/>
<path d="M1496 3277 c-26 -19 -24 -67 4 -89 27 -22 39 -22 68 -2 42 29 18 104
-34 104 -11 0 -28 -6 -38 -13z"/>
<path d="M4485 3280 c-143 -25 -316 -156 -376 -284 -28 -60 -31 -74 -28 -144
5 -100 33 -147 110 -186 44 -22 67 -26 133 -26 99 0 135 10 211 55 55 34 60
35 72 19 7 -10 13 -21 13 -24 0 -13 52 -30 93 -30 26 0 56 9 81 23 l38 24 25
-25 c21 -21 31 -24 79 -20 42 4 63 12 94 37 l40 32 9 -23 c27 -70 121 -72 121
-3 0 58 21 139 43 163 28 30 106 79 140 87 20 6 27 4 27 -8 0 -21 -53 -64
-118 -96 l-54 -26 6 -53 c8 -69 30 -110 62 -118 36 -9 98 12 138 46 40 35 47
36 63 10 32 -50 145 -73 235 -46 65 19 148 87 179 148 28 55 14 67 -30 24 -62
-60 -137 -80 -210 -55 -32 11 -41 27 -18 33 143 39 187 70 187 130 0 133 -300
43 -352 -105 -11 -31 -52 -59 -87 -59 -11 0 -27 10 -36 23 -15 21 -14 23 25
57 79 68 103 134 54 146 -30 8 -94 -9 -142 -37 -37 -21 -42 -23 -42 -10 0 14
96 157 135 200 31 34 35 42 20 47 -23 9 -52 -6 -114 -62 -67 -60 -163 -188
-204 -271 -21 -42 -41 -67 -63 -79 -68 -37 -80 4 -39 127 27 78 26 106 -3 94
-9 -4 -48 -8 -87 -10 -124 -5 -239 -68 -300 -165 -68 -108 -282 -113 -357 -8
-19 27 -23 46 -23 103 0 59 5 79 30 124 35 63 101 125 170 157 87 41 152 25
127 -31 -10 -22 -8 -27 14 -41 67 -45 120 69 54 117 -32 23 -82 29 -145 19z
m455 -319 c0 -19 -96 -136 -129 -158 -42 -28 -67 -29 -81 -3 -17 31 5 85 46
116 51 39 164 70 164 45z m804 3 c42 -16 3 -81 -63 -103 -43 -14 -41 -15 -41
13 0 37 36 76 87 95 1 1 8 -2 17 -5z"/>
<path d="M3197 3014 c-3 -3 -39 -7 -80 -8 -58 -2 -88 -9 -140 -33 -101 -48
-177 -137 -177 -208 0 -34 25 -82 49 -95 34 -18 110 -12 152 12 l39 22 20 -22
c33 -35 105 -31 167 11 l50 33 29 -34 c22 -25 38 -34 64 -35 l34 -2 12 77 c7
42 17 85 23 96 20 37 132 114 146 100 3 -3 -10 -31 -30 -63 -78 -131 -51 -224
64 -213 62 6 112 44 163 122 31 49 49 96 35 96 -2 0 -25 -20 -50 -45 -35 -33
-55 -45 -77 -45 -26 0 -30 4 -30 28 0 15 12 59 26 99 30 82 27 103 -13 103
-34 -1 -129 -38 -172 -69 -34 -25 -39 -16 -16 30 14 27 14 30 -1 36 -30 11
-87 -30 -136 -97 -82 -112 -87 -118 -115 -125 -55 -13 -60 45 -14 164 12 29
19 57 16 62 -7 10 -29 12 -38 3z m-47 -53 c0 -5 -24 -40 -53 -77 -87 -113
-164 -137 -161 -50 2 54 53 102 134 127 35 10 80 11 80 0z"/>
<path d="M1468 2751 c-176 -70 -267 -146 -288 -242 -11 -48 -10 -60 9 -110 12
-30 37 -74 55 -96 46 -53 162 -132 287 -195 57 -29 97 -54 91 -56 -16 -5 -174
59 -285 115 -83 43 -132 82 -176 141 -16 22 -20 23 -21 9 -1 -56 81 -135 208
-200 178 -91 367 -153 747 -242 88 -21 311 -61 465 -84 302 -45 375 -54 775
-90 390 -36 1066 -46 1475 -23 217 13 662 55 755 72 28 5 73 11 100 15 28 3
100 15 160 26 469 85 751 167 1002 291 113 55 156 82 211 133 79 73 104 118
104 184 0 82 -36 139 -139 219 -53 40 -275 154 -325 166 -36 8 -48 -15 -48
-88 0 -264 -275 -387 -1130 -506 -159 -22 -297 -35 -555 -51 -206 -13 -1259
-6 -1480 10 -82 6 -247 18 -365 26 -501 34 -678 54 -943 106 -267 52 -365 86
-427 149 -57 57 -72 99 -84 245 -4 44 -10 88 -12 98 -8 27 -58 21 -166 -22z
m-79 -315 c142 -94 399 -188 629 -230 161 -30 430 -62 807 -96 671 -60 1930
-60 2555 0 796 77 1262 175 1495 316 82 49 135 62 135 32 0 -22 -56 -80 -113
-116 -311 -195 -1178 -339 -2228 -372 -440 -13 -1123 -14 -1294 -1 -405 32
-533 43 -675 61 -85 11 -256 29 -380 40 -243 22 -257 24 -370 46 -311 62 -554
157 -640 250 -42 45 -47 62 -30 95 16 28 35 24 109 -25z"/>
<path d="M3946 2414 c-34 -33 -8 -104 37 -104 25 0 57 36 57 64 0 26 -33 56
-62 56 -9 0 -24 -7 -32 -16z"/>
</g>
</svg>
